<svg viewBox="0 0 100 100" xmlns="http://www.w3.org/2000/svg">
  <rect width="100%" height="100%" fill="#015b97" />
  <path
    d="M    5      25
       Q   12.5    15    20    25
       Q   27.5    35    35    25
       Q   42.5    15    50    25
       Q   57.5    35    65    25
       Q   72.5    15    80    25
       Q   87.5    35    95    25"
    stroke="#74a8dd"
    fill="transparent"
    stroke-width="5"
    stroke-linecap="round"
  />

  <path
    d=" M    5      50
        Q   12.5    40    20    50
        Q   27.5    60    35    50
        Q   42.5    40    50    50
        Q   57.5    60    65    50
        Q   72.5    40    80    50
        Q   87.5    60    95    50"
    stroke="#74a8dd"
    fill="transparent"
    stroke-width="5"
    stroke-linecap="round"
  />

  <path
    d=" M    5      75
        Q   12.5    65    20    75
        Q   27.5    85    35    75
        Q   42.5    65    50    75
        Q   57.5    85    65    75
        Q   72.5    65    80    75
        Q   87.5    85    95    75"
    stroke="#74a8dd"
    fill="transparent"
    stroke-width="5"
    stroke-linecap="round"
  />
</svg>
